<svg width="433" height="433" viewBox="0 0 433 433" fill="none" xmlns="http://www.w3.org/2000/svg">
<circle cx="216.5" cy="216.5" r="216.5" fill="url(#paint0_linear_219_885)"/>
<path fill-rule="evenodd" clip-rule="evenodd" d="M91.8693 171.629C91.9771 162.716 92.1006 152.502 99.0463 144.591C102.286 140.901 106.561 139.839 111.276 138.668C118.776 136.805 127.39 134.666 134.72 121.228C142.185 107.541 139.629 77.594 113.5 74.4998C80.4306 70.5839 70.8883 100.068 62.1076 127.199C60.748 131.4 59.4067 135.545 57.9991 139.5C42.73 182.407 41.4996 196.805 81.2171 191.736C91.6423 190.405 91.7454 181.877 91.8693 171.629ZM92.5002 119.5C87.3445 113.048 95.6308 101.915 106 101.5C116.368 101.085 120.786 108.707 116.491 115.007C110.269 124.132 97.1448 125.312 92.5002 119.5Z" fill="#E4E5E1"/>
<path d="M99.0463 144.591L97.9192 143.602L99.0463 144.591ZM91.8693 171.629L93.3692 171.648L91.8693 171.629ZM111.276 138.668L111.638 140.124H111.638L111.276 138.668ZM134.72 121.228L136.037 121.946L134.72 121.228ZM113.5 74.4998L113.676 73.0103L113.5 74.4998ZM62.1076 127.199L60.6805 126.737L62.1076 127.199ZM57.9991 139.5L59.4123 140.003L57.9991 139.5ZM81.2171 191.736L81.407 193.224L81.2171 191.736ZM92.5002 119.5L93.6721 118.563L92.5002 119.5ZM116.491 115.007L117.73 115.852L116.491 115.007ZM97.9192 143.602C90.552 151.992 90.4761 162.792 90.3694 171.611L93.3692 171.648C93.4781 162.64 93.6492 153.011 100.174 145.581L97.9192 143.602ZM110.914 137.213C106.27 138.366 101.516 139.506 97.9192 143.602L100.174 145.581C103.057 142.297 106.853 141.312 111.638 140.124L110.914 137.213ZM133.403 120.509C129.848 127.027 126.036 130.715 122.28 133.009C118.494 135.321 114.679 136.278 110.914 137.213L111.638 140.124C115.373 139.196 119.615 138.152 123.844 135.569C128.102 132.968 132.262 128.867 136.037 121.946L133.403 120.509ZM113.324 75.9894C125.698 77.4548 132.446 85.2127 135.275 94.3357C138.137 103.565 136.926 114.051 133.403 120.509L136.037 121.946C139.979 114.718 141.223 103.386 138.141 93.4471C135.026 83.4015 127.431 74.639 113.676 73.0103L113.324 75.9894ZM63.5347 127.661C67.9463 114.03 72.4592 100.136 79.9005 90.1003C83.5978 85.1136 87.9818 81.1354 93.3851 78.6274C98.7813 76.1227 105.293 75.0385 113.324 75.9894L113.676 73.0103C105.173 72.0033 98.0902 73.1361 92.1221 75.9062C86.161 78.6731 81.4101 83.0273 77.4906 88.3136C69.6981 98.8234 65.0496 113.237 60.6805 126.737L63.5347 127.661ZM59.4123 140.003C60.8284 136.023 62.1765 131.858 63.5347 127.661L60.6805 126.737C59.3196 130.942 57.9849 135.066 56.5859 138.997L59.4123 140.003ZM81.0272 190.248C71.1397 191.51 63.9995 191.528 59.0499 190.291C54.2089 189.081 51.5933 186.717 50.4126 183.139C49.1727 179.381 49.433 174.058 51.0635 166.805C52.6837 159.597 55.5957 150.728 59.4123 140.003L56.5859 138.997C52.7679 149.726 49.8002 158.746 48.1365 166.147C46.4829 173.503 46.0551 179.507 47.5637 184.079C49.1314 188.83 52.7009 191.797 58.3226 193.202C63.8357 194.579 71.4358 194.496 81.407 193.224L81.0272 190.248ZM90.3694 171.611C90.3064 176.828 90.2337 181.22 89.002 184.499C88.4059 186.086 87.5572 187.346 86.3426 188.289C85.1233 189.235 83.4328 189.941 81.0272 190.248L81.407 193.224C84.214 192.865 86.4459 192.006 88.1819 190.659C89.9225 189.308 91.0621 187.546 91.8104 185.554C93.2675 181.674 93.3084 176.679 93.3692 171.648L90.3694 171.611ZM105.94 100.001C100.25 100.229 95.1869 103.379 92.2269 107.338C89.2985 111.254 88.1436 116.451 91.3284 120.436L93.6721 118.563C91.7012 116.097 92.1115 112.501 94.6295 109.134C97.116 105.809 101.38 103.186 106.06 102.999L105.94 100.001ZM117.73 115.852C120.195 112.237 120.229 108.073 117.97 104.871C115.736 101.705 111.483 99.7793 105.94 100.001L106.06 102.999C110.885 102.806 114.025 104.484 115.519 106.6C116.986 108.68 117.082 111.477 115.251 114.162L117.73 115.852ZM91.3284 120.436C94.1112 123.919 99.1956 125.092 104.131 124.338C109.131 123.573 114.358 120.798 117.73 115.852L115.251 114.162C112.403 118.34 107.956 120.718 103.678 121.372C99.334 122.036 95.5339 120.893 93.6721 118.563L91.3284 120.436Z" fill="#E4E5E1"/>
<path fill-rule="evenodd" clip-rule="evenodd" d="M117.251 145.906C150.066 136.159 154.519 106.898 142.185 83.8956C126.839 55.2775 169.948 42.0056 191.955 87.6281C209.562 124.131 212.229 165.399 212.229 195.676C212.229 219.731 186.1 225.537 171.998 200.662C166.22 190.47 169.189 175.458 171.667 162.932C174.201 150.114 176.222 139.898 167.832 140.108C151.242 140.523 147.509 143.426 147.094 150.477C146.981 152.393 148.553 156.788 150.46 162.123C155.574 176.426 163.104 197.488 147.094 195.676C135.733 194.39 131.328 196.797 128.078 198.573C125.039 200.233 123.01 201.342 117.251 198.367C97.8981 188.368 92.4157 153.283 117.251 145.906ZM154.999 81.4999C157.676 71.552 165.363 73.7385 171.169 85.7661C175.041 93.7856 173.658 104.429 164.119 101.526C156.17 99.1076 152.888 89.3452 154.999 81.4999Z" fill="#E4E5E1"/>
<path d="M142.185 83.8956L140.863 84.6044V84.6045L142.185 83.8956ZM117.251 145.906L116.824 144.468L117.251 145.906ZM191.955 87.6281L190.603 88.2798L191.955 87.6281ZM171.998 200.662L170.693 201.401L171.998 200.662ZM171.667 162.932L170.195 162.641L171.667 162.932ZM167.832 140.108L167.869 141.608L167.832 140.108ZM147.094 150.477L145.597 150.389L147.094 150.477ZM150.46 162.123L151.873 161.618V161.618L150.46 162.123ZM147.094 195.676L146.925 197.166L147.094 195.676ZM128.078 198.573L127.358 197.257H127.358L128.078 198.573ZM117.251 198.367L117.94 197.034H117.94L117.251 198.367ZM171.169 85.7661L172.52 85.114L171.169 85.7661ZM154.999 81.4999L156.448 81.8897V81.8897L154.999 81.4999ZM164.119 101.526L163.682 102.961L164.119 101.526ZM140.863 84.6045C146.881 95.827 148.744 108.47 145.221 119.412C141.718 130.291 132.819 139.717 116.824 144.468L117.678 147.344C134.498 142.348 144.233 132.27 148.077 120.331C151.9 108.456 149.823 94.9665 143.506 83.1867L140.863 84.6045ZM193.306 86.9765C182.131 63.8094 165.354 55.1513 152.909 56.4295C146.692 57.068 141.542 60.2236 139.045 65.331C136.547 70.4397 136.869 77.1571 140.863 84.6044L143.506 83.1867C139.827 76.325 139.783 70.6517 141.74 66.6487C143.698 62.6445 147.823 59.9677 153.216 59.4138C163.991 58.3071 179.772 65.8243 190.603 88.2798L193.306 86.9765ZM213.729 195.676C213.729 165.345 211.065 123.795 193.306 86.9765L190.603 88.2798C208.059 124.467 210.729 165.453 210.729 195.676H213.729ZM170.693 201.401C177.952 214.206 188.547 219.477 197.642 217.998C206.809 216.507 213.729 208.28 213.729 195.676H210.729C210.729 207.126 204.584 213.83 197.161 215.037C189.666 216.256 180.146 211.993 173.303 199.922L170.693 201.401ZM170.195 162.641C168.96 168.883 167.575 175.877 167.239 182.597C166.903 189.308 167.6 195.945 170.693 201.401L173.303 199.922C170.619 195.187 169.911 189.221 170.235 182.747C170.558 176.282 171.895 169.507 173.138 163.223L170.195 162.641ZM167.869 141.608C169.646 141.563 170.599 142.061 171.18 142.75C171.822 143.512 172.242 144.781 172.348 146.717C172.562 150.613 171.479 156.149 170.195 162.641L173.138 163.223C174.389 156.897 175.583 150.916 175.344 146.553C175.223 144.359 174.733 142.312 173.474 140.817C172.153 139.249 170.213 138.548 167.794 138.609L167.869 141.608ZM148.592 150.565C148.689 148.915 148.974 147.647 149.504 146.638C150.019 145.658 150.816 144.826 152.112 144.123C154.821 142.653 159.567 141.815 167.869 141.608L167.794 138.609C159.506 138.816 154.091 139.637 150.682 141.485C148.92 142.441 147.669 143.682 146.849 145.243C146.044 146.774 145.707 148.514 145.597 150.389L148.592 150.565ZM151.873 161.618C150.915 158.94 150.058 156.542 149.453 154.576C149.151 153.595 148.92 152.747 148.772 152.045C148.62 151.322 148.575 150.843 148.592 150.565L145.597 150.389C145.557 151.069 145.667 151.858 145.837 152.664C146.011 153.491 146.271 154.435 146.586 155.459C147.215 157.503 148.098 159.971 149.048 162.628L151.873 161.618ZM146.925 197.166C151.233 197.654 154.391 196.631 156.291 194.112C158.095 191.721 158.462 188.345 158.194 184.829C157.655 177.756 154.405 168.702 151.873 161.618L149.048 162.628C151.629 169.847 154.701 178.475 155.203 185.057C155.455 188.367 155.023 190.811 153.896 192.306C152.864 193.673 150.96 194.604 147.263 194.185L146.925 197.166ZM128.797 199.889C130.401 199.012 132.162 198.053 134.876 197.439C137.602 196.821 141.37 196.537 146.925 197.166L147.263 194.185C141.457 193.528 137.341 193.805 134.213 194.513C131.071 195.225 129.004 196.357 127.358 197.257L128.797 199.889ZM116.563 199.699C119.552 201.244 121.789 201.845 123.79 201.704C125.774 201.565 127.322 200.695 128.797 199.889L127.358 197.257C125.795 198.111 124.809 198.626 123.58 198.712C122.367 198.797 120.709 198.465 117.94 197.034L116.563 199.699ZM116.824 144.468C103.569 148.405 98.4664 159.797 99.1834 171.247C99.8952 182.612 106.332 194.414 116.563 199.699L117.94 197.034C108.818 192.321 102.836 181.581 102.178 171.059C101.524 160.623 106.098 150.783 117.678 147.344L116.824 144.468ZM172.52 85.114C171.024 82.0141 169.38 79.4924 167.681 77.6187C165.995 75.7604 164.173 74.4501 162.302 73.9442C160.354 73.4172 158.448 73.7968 156.869 75.1337C155.358 76.4132 154.262 78.4683 153.551 81.1102L156.448 81.8897C157.075 79.5576 157.943 78.1556 158.808 77.423C159.605 76.7479 160.485 76.5606 161.519 76.8402C162.631 77.1409 163.986 78.0106 165.459 79.6342C166.917 81.2424 168.412 83.5043 169.819 86.4183L172.52 85.114ZM163.682 102.961C166.313 103.762 168.611 103.695 170.467 102.754C172.327 101.811 173.488 100.121 174.102 98.1984C175.308 94.424 174.566 89.3518 172.52 85.114L169.819 86.4183C171.644 90.1999 172.147 94.4591 171.244 97.2856C170.804 98.6629 170.073 99.5908 169.111 100.078C168.146 100.567 166.694 100.742 164.555 100.091L163.682 102.961ZM153.551 81.1102C152.409 85.3526 152.724 90.0943 154.402 94.1246C156.085 98.1668 159.19 101.594 163.682 102.961L164.555 100.091C161.099 99.0394 158.589 96.3765 157.172 92.9715C155.749 89.5546 155.478 85.4925 156.448 81.8897L153.551 81.1102Z" fill="#E4E5E1"/>
<path fill-rule="evenodd" clip-rule="evenodd" d="M197.485 75.1963C191.883 65.4215 188.471 59.4685 193.612 50.3015C203.152 33.2934 255.362 34.5167 255.362 50.3026C255.362 57.888 251.694 60.3437 247.497 63.153C245.726 64.3383 243.861 65.5865 242.138 67.3094C229.884 79.5639 244.347 98.8307 261.218 98.8307C289.423 98.8307 297.302 117.494 298.546 140.306C299.259 153.385 295.753 161.735 293.004 168.283C290.18 175.009 288.154 179.833 292.325 185.928C300.554 197.956 265.366 214.546 267.805 193.601C270.244 172.656 276.256 116.804 250.781 124.338C242.135 126.895 245.745 137.104 250.496 150.537C255.762 165.427 262.429 184.278 255.362 201.067C250.368 212.931 227.907 221.459 225.067 201.067C224.241 195.137 223.483 188.115 222.639 180.295C220.58 161.22 218.008 137.394 212.687 113.07C208.672 94.714 202.277 83.5571 197.485 75.1963ZM207.666 70.8355C212.11 79.6654 218.865 77.8861 225.501 70.8355C233.011 62.8564 234.046 59.2635 230.063 55.0748C222.693 47.3242 202.859 61.282 207.666 70.8355Z" fill="#E4E5E1"/>
<path d="M193.612 50.3015L192.304 49.5678L193.612 50.3015ZM197.485 75.1963L196.184 75.9422L197.485 75.1963ZM247.497 63.153L246.662 61.9065V61.9065L247.497 63.153ZM242.138 67.3094L241.078 66.2488L242.138 67.3094ZM298.546 140.306L297.048 140.387L298.546 140.306ZM293.004 168.283L291.621 167.702L293.004 168.283ZM292.325 185.928L291.087 186.775L292.325 185.928ZM267.805 193.601L269.295 193.775L267.805 193.601ZM250.781 124.338L251.207 125.776L250.781 124.338ZM250.496 150.537L249.082 151.038L250.496 150.537ZM255.362 201.067L256.745 201.649L255.362 201.067ZM225.067 201.067L223.581 201.274L225.067 201.067ZM222.639 180.295L224.13 180.134L222.639 180.295ZM212.687 113.07L214.153 112.749L212.687 113.07ZM225.501 70.8355L226.593 71.8636V71.8636L225.501 70.8355ZM207.666 70.8355L209.006 70.1612L207.666 70.8355ZM230.063 55.0748L231.15 54.0412L230.063 55.0748ZM192.304 49.5678C189.568 54.4468 189.055 58.6095 190.06 62.8658C191.032 66.9792 193.419 71.1174 196.184 75.9422L198.787 74.4504C195.95 69.5004 193.83 65.7748 192.98 62.1763C192.164 58.7206 192.516 55.3233 194.921 51.0353L192.304 49.5678ZM256.862 50.3026C256.862 45.3871 252.799 41.9856 247.625 39.8632C242.348 37.6989 235.32 36.5821 228.081 36.5044C220.83 36.4265 213.242 37.3895 206.821 39.4802C200.452 41.5538 194.963 44.8264 192.304 49.5678L194.921 51.0353C197.031 47.2725 201.646 44.32 207.75 42.3328C213.801 40.3626 221.054 39.4291 228.048 39.5042C235.054 39.5795 241.675 40.6654 246.486 42.6388C251.399 44.654 253.862 47.3252 253.862 50.3026H256.862ZM248.331 64.3996C250.39 63.0213 252.581 61.572 254.201 59.4216C255.871 57.2054 256.862 54.363 256.862 50.3026H253.862C253.862 53.8276 253.019 56.0058 251.805 57.6161C250.542 59.2923 248.8 60.4755 246.662 61.9065L248.331 64.3996ZM243.199 68.3701C244.803 66.7658 246.549 65.5926 248.331 64.3996L246.662 61.9065C244.903 63.084 242.919 64.4072 241.078 66.2488L243.199 68.3701ZM261.218 97.3307C253.332 97.3307 245.949 92.8067 242.008 86.8388C240.047 83.8697 238.984 80.6116 239.077 77.4486C239.169 74.313 240.398 71.1715 243.199 68.3701L241.078 66.2488C237.752 69.5746 236.193 73.4369 236.078 77.3604C235.963 81.2565 237.273 85.1128 239.504 88.4921C243.949 95.2213 252.233 100.331 261.218 100.331V97.3307ZM300.044 140.224C299.416 128.718 297.11 117.987 291.191 110.113C285.201 102.144 275.69 97.3307 261.218 97.3307V100.331C274.951 100.331 283.482 104.85 288.793 111.915C294.176 119.076 296.432 129.082 297.048 140.387L300.044 140.224ZM294.387 168.863C297.158 162.266 300.776 153.655 300.044 140.224L297.048 140.387C297.742 153.115 294.349 161.205 291.621 167.702L294.387 168.863ZM293.563 185.081C291.678 182.327 291.237 179.96 291.531 177.522C291.839 174.963 292.952 172.283 294.387 168.863L291.621 167.702C290.233 171.009 288.92 174.104 288.552 177.163C288.17 180.342 288.801 183.435 291.087 186.775L293.563 185.081ZM266.315 193.428C265.989 196.228 266.272 198.56 267.136 200.413C268.015 202.295 269.444 203.573 271.178 204.31C274.543 205.741 278.917 205.098 282.801 203.519C286.73 201.922 290.535 199.222 292.839 196.024C295.166 192.795 296.1 188.79 293.563 185.081L291.087 186.775C292.664 189.081 292.286 191.66 290.405 194.27C288.503 196.911 285.206 199.304 281.672 200.74C278.092 202.195 274.641 202.523 272.351 201.549C271.258 201.085 270.402 200.316 269.855 199.144C269.294 197.942 269.011 196.21 269.295 193.775L266.315 193.428ZM251.207 125.776C254.153 124.905 256.503 124.988 258.402 125.697C260.305 126.407 261.919 127.807 263.28 129.864C266.045 134.041 267.583 140.653 268.266 148.421C269.627 163.885 267.537 182.935 266.315 193.428L269.295 193.775C270.512 183.322 272.647 163.974 271.255 148.158C270.562 140.287 268.979 133.039 265.782 128.208C264.162 125.761 262.086 123.87 259.451 122.886C256.813 121.901 253.778 121.887 250.356 122.899L251.207 125.776ZM251.91 150.037C249.508 143.244 247.503 137.542 247.108 133.222C246.913 131.086 247.136 129.483 247.748 128.32C248.33 127.214 249.359 126.323 251.207 125.776L250.356 122.899C247.88 123.632 246.118 124.975 245.093 126.923C244.099 128.812 243.9 131.081 244.121 133.495C244.557 138.278 246.733 144.397 249.082 151.038L251.91 150.037ZM256.745 201.649C260.426 192.904 260.503 183.682 259.033 174.844C257.567 166.02 254.536 157.463 251.91 150.037L249.082 151.038C251.721 158.501 254.657 166.814 256.074 175.336C257.488 183.843 257.365 192.441 253.98 200.485L256.745 201.649ZM223.581 201.274C224.33 206.652 226.413 210.364 229.413 212.55C232.402 214.729 236.068 215.222 239.646 214.644C246.704 213.503 254.029 208.1 256.745 201.649L253.98 200.485C251.701 205.898 245.299 210.691 239.167 211.682C236.151 212.17 233.356 211.712 231.18 210.126C229.013 208.547 227.223 205.678 226.552 200.86L223.581 201.274ZM221.148 180.456C221.991 188.269 222.751 195.316 223.581 201.274L226.552 200.86C225.73 194.958 224.975 187.962 224.13 180.134L221.148 180.456ZM211.222 113.39C216.523 137.624 219.088 161.374 221.148 180.456L224.13 180.134C222.072 161.066 219.493 137.163 214.153 112.749L211.222 113.39ZM196.184 75.9422C200.955 84.2655 207.257 95.2625 211.222 113.39L214.153 112.749C210.088 94.1655 203.6 82.8487 198.787 74.4504L196.184 75.9422ZM224.408 69.8075C221.157 73.2621 218.144 75.1143 215.653 75.2946C213.405 75.4572 211.072 74.2658 209.006 70.1612L206.326 71.5098C208.704 76.2351 211.97 78.569 215.869 78.2868C219.526 78.0222 223.208 75.4594 226.593 71.8636L224.408 69.8075ZM228.976 56.1084C229.884 57.0633 230.41 57.8863 230.661 58.6513C230.903 59.3861 230.925 60.1668 230.651 61.117C230.063 63.1481 228.176 65.8046 224.408 69.8075L226.593 71.8636C230.335 67.8874 232.721 64.7579 233.532 61.9505C233.957 60.4815 233.961 59.0799 233.511 57.7136C233.071 56.3776 232.233 55.1806 231.15 54.0412L228.976 56.1084ZM209.006 70.1612C208.086 68.3336 208.278 66.1944 209.436 63.9373C210.598 61.6714 212.67 59.4458 215.161 57.6928C217.652 55.9397 220.447 54.7409 222.972 54.4115C225.488 54.0835 227.566 54.6257 228.976 56.1084L231.15 54.0412C228.875 51.6486 225.71 51.0291 222.584 51.4367C219.468 51.8431 216.223 53.2776 213.435 55.2394C210.647 57.2012 208.201 59.7719 206.767 62.5678C205.328 65.3725 204.842 68.5606 206.326 71.5098L209.006 70.1612Z" fill="#E4E5E1"/>
<path d="M352.813 102.361C365.67 92.4065 330.643 74.1212 310.112 68.7648C287.92 62.9751 241.307 66.2073 249.602 82.3787C256.227 95.2948 274.079 86.596 289.423 94.6837C305.266 103.034 315.962 140.858 306.423 162.011C301.649 172.597 291.541 195.819 321.309 185.307C327.116 183.257 345.068 175.232 335.826 152.127C328.36 133.463 308.868 100.286 315.919 91.5762C322.97 82.8664 339.956 112.315 352.813 102.361Z" fill="#E4E5E1" stroke="#E4E5E1" stroke-width="3"/>
<path d="M331.722 111.826C315.546 116.388 354.948 138.37 345.409 169.891C340.07 187.534 391.5 188 385 169.891C380.768 158.102 341.339 139.5 384 131.32C391.218 129.935 380.267 111.827 373.216 108.923C361.189 103.97 362.413 131.32 353.289 131.32C338.358 131.32 354.118 105.51 331.722 111.826Z" fill="#E4E5E1" stroke="#E4E5E1" stroke-width="3"/>
<path d="M81.0167 199.994C68.9444 197.299 56.145 199.994 50.7399 209.533C36.6382 234.418 81.9819 256.797 73.5325 299.949C67.3742 331.4 81.0167 341.423 93.0445 345.571C105.072 349.718 105.054 334.788 118.74 336.861C132.427 338.935 107.605 370.801 125.44 370.801C149.08 370.801 144.226 352.276 146.592 342.598C151.154 323.934 159.136 320.554 171.481 306.999C192.633 283.773 166.148 203.38 142.444 201.998C92.2706 199.072 157.312 292.898 143.211 297.045C129.109 301.193 134.916 277.137 124.132 277.137C113.349 277.137 123.303 293.727 112.104 292.898C100.906 292.068 105.072 246.446 105.072 231.1C105.072 215.754 93.089 202.689 81.0167 199.994Z" fill="#E4E5E1" stroke="#E4E5E1" stroke-width="3"/>
<path fill-rule="evenodd" clip-rule="evenodd" d="M161.064 375.431C151.11 359.256 154.078 338.03 174.38 319.372C194.683 300.715 192.027 272.258 184.271 246.859C173.485 211.537 248.21 211.192 245.673 270.086C244.992 285.887 252.63 294.239 261.125 303.529C265.328 308.126 269.742 312.953 273.461 319.025C273.852 319.662 274.245 320.302 274.639 320.944C285.526 338.667 297.308 357.846 284.641 375.431C273.278 391.206 255.659 393.789 236.548 388.29C222.281 384.184 223.727 366.57 225.021 350.816C226.183 336.658 227.222 324.002 216.622 324.002C206.006 324.002 207.856 337.687 209.923 352.973C212.216 369.938 214.776 388.874 200.861 393.265C183.802 398.649 170.439 390.666 161.064 375.431ZM206.271 287.09C199.041 277.853 205.072 269.187 213.781 267.113C226.936 263.981 232.856 272.294 224.52 282.942C217.631 291.742 213.16 295.89 206.271 287.09Z" fill="#E4E5E1"/>
<path d="M174.38 319.372L175.395 320.477L174.38 319.372ZM161.064 375.431L159.786 376.217L161.064 375.431ZM184.271 246.859L185.706 246.421L184.271 246.859ZM245.673 270.086L244.174 270.021L245.673 270.086ZM261.125 303.529L260.018 304.542L261.125 303.529ZM273.461 319.025L274.74 318.241V318.241L273.461 319.025ZM274.639 320.944L273.36 321.729H273.36L274.639 320.944ZM284.641 375.431L285.858 376.308L284.641 375.431ZM236.548 388.29L236.963 386.848L236.548 388.29ZM225.021 350.816L223.526 350.693L225.021 350.816ZM209.923 352.973L208.436 353.174L209.923 352.973ZM200.861 393.265L200.41 391.835L200.861 393.265ZM213.781 267.113L213.434 265.654L213.781 267.113ZM206.271 287.09L207.452 286.165L206.271 287.09ZM224.52 282.942L225.701 283.867V283.867L224.52 282.942ZM173.365 318.268C152.672 337.284 149.365 359.283 159.786 376.217L162.341 374.645C152.854 359.229 155.483 338.776 175.395 320.477L173.365 318.268ZM182.836 247.297C190.578 272.647 192.959 300.261 173.365 318.268L175.395 320.477C196.407 301.168 193.477 271.869 185.706 246.421L182.836 247.297ZM247.171 270.151C247.82 255.092 243.527 243.692 236.78 235.677C230.049 227.682 220.951 223.145 212.127 221.662C203.337 220.185 194.637 221.713 188.772 226.104C185.822 228.313 183.592 231.249 182.483 234.86C181.374 238.468 181.416 242.647 182.836 247.297L185.706 246.421C184.429 242.241 184.447 238.682 185.35 235.741C186.253 232.802 188.072 230.376 190.57 228.505C195.603 224.738 203.404 223.238 211.63 224.621C219.821 225.997 228.255 230.21 234.485 237.609C240.698 244.99 244.794 255.633 244.174 270.021L247.171 270.151ZM262.232 302.517C253.735 293.225 246.52 285.282 247.171 270.151L244.174 270.021C243.465 286.491 251.525 295.253 260.018 304.542L262.232 302.517ZM274.74 318.241C270.935 312.03 266.426 307.104 262.232 302.517L260.018 304.542C264.23 309.149 268.548 313.876 272.182 319.808L274.74 318.241ZM275.917 320.158C275.523 319.517 275.13 318.878 274.74 318.241L272.182 319.808C272.573 320.447 272.966 321.087 273.36 321.729L275.917 320.158ZM285.858 376.308C292.533 367.041 292.727 357.337 289.911 347.814C287.121 338.378 281.334 328.977 275.917 320.158L273.36 321.729C278.83 330.633 284.378 339.683 287.034 348.664C289.664 357.558 289.416 366.236 283.424 374.554L285.858 376.308ZM236.133 389.731C245.854 392.528 255.308 393.304 263.843 391.298C272.411 389.285 279.966 384.487 285.858 376.308L283.424 374.554C277.952 382.15 271.016 386.531 263.157 388.378C255.264 390.232 246.353 389.55 236.963 386.848L236.133 389.731ZM223.526 350.693C222.883 358.513 222.17 367.07 223.473 374.191C224.129 377.776 225.311 381.096 227.345 383.816C229.397 386.56 232.261 388.617 236.133 389.731L236.963 386.848C233.701 385.909 231.396 384.225 229.747 382.019C228.08 379.789 227.029 376.952 226.424 373.651C225.207 367 225.864 358.874 226.516 350.939L223.526 350.693ZM216.622 325.502C218.948 325.502 220.455 326.183 221.497 327.249C222.581 328.359 223.325 330.054 223.758 332.375C224.632 337.065 224.113 343.535 223.526 350.693L226.516 350.939C227.09 343.94 227.672 337.002 226.707 331.825C226.22 329.212 225.309 326.858 223.643 325.152C221.934 323.403 219.595 322.502 216.622 322.502V325.502ZM211.409 352.772C210.366 345.054 209.427 338.028 210.007 332.925C210.295 330.387 210.941 328.542 211.951 327.348C212.903 326.222 214.325 325.502 216.622 325.502V322.502C213.61 322.502 211.283 323.493 209.661 325.41C208.097 327.26 207.344 329.792 207.026 332.586C206.394 338.147 207.413 345.607 208.436 353.174L211.409 352.772ZM201.313 394.696C205.132 393.49 207.869 391.259 209.738 388.304C211.584 385.385 212.541 381.829 212.961 377.998C213.798 370.374 212.549 361.199 211.409 352.772L208.436 353.174C209.591 361.712 210.768 370.487 209.979 377.67C209.587 381.243 208.718 384.305 207.202 386.701C205.709 389.062 203.548 390.844 200.41 391.835L201.313 394.696ZM159.786 376.217C164.571 383.993 170.447 390.04 177.426 393.429C184.44 396.836 192.444 397.495 201.313 394.696L200.41 391.835C192.219 394.42 185.012 393.778 178.736 390.731C172.424 387.665 166.931 382.104 162.341 374.645L159.786 376.217ZM213.434 265.654C208.73 266.774 204.617 269.703 202.692 273.774C200.723 277.939 201.177 283.015 205.09 288.014L207.452 286.165C204.135 281.928 203.988 278.052 205.405 275.057C206.865 271.968 210.123 269.526 214.129 268.572L213.434 265.654ZM225.701 283.867C230.017 278.354 231.091 272.845 228.444 269.008C225.829 265.219 220.228 264.036 213.434 265.654L214.129 268.572C220.489 267.058 224.425 268.466 225.975 270.712C227.492 272.912 227.359 276.882 223.339 282.018L225.701 283.867ZM205.09 288.014C206.878 290.299 208.621 291.893 210.416 292.747C212.28 293.633 214.117 293.68 215.91 293.025C217.63 292.397 219.234 291.152 220.79 289.603C222.356 288.045 223.975 286.072 225.701 283.867L223.339 282.018C221.621 284.212 220.098 286.059 218.673 287.477C217.237 288.907 216.001 289.798 214.881 290.207C213.834 290.59 212.832 290.573 211.704 290.037C210.508 289.469 209.109 288.281 207.452 286.165L205.09 288.014Z" fill="#E4E5E1"/>
<path d="M283.001 250.593C283.001 207.459 223.321 206.145 248.206 237.251C264.395 257.487 248.306 275.112 264.796 292.413C307.886 337.621 294.288 356.7 315.811 356.7C337.792 356.7 358.149 326.824 348.58 303.266C342.773 289.165 309.959 262.621 318.254 242.298C326.549 221.975 327.379 197.505 309.959 197.505C289.266 197.505 281.738 209.947 288.374 236.491C295.01 263.036 329.02 300.363 307.038 303.266C285.056 306.17 283.001 267.292 283.001 250.593Z" fill="#E4E5E1" stroke="#E4E5E1" stroke-width="3"/>
<path d="M382.538 203.729C381.637 189.14 355.164 187.553 339.404 187.553C311.635 187.553 342.96 197.435 334.056 221.076C319.145 260.668 349.402 282.044 360.186 302.782C365.45 312.906 391.707 296.561 385.441 268.847C382.149 254.284 355.994 255.16 355.164 239.815C354.335 224.469 385.441 256.405 385.441 232.764C385.441 209.123 359.433 242.194 348.943 219.904C338.989 198.752 384.612 237.322 382.538 203.729Z" fill="#E4E5E1" stroke="#E4E5E1" stroke-width="3"/>
<defs>
<linearGradient id="paint0_linear_219_885" x1="0" y1="216" x2="433" y2="216" gradientUnits="userSpaceOnUse">
<stop stop-color="#7CD8FF"/>
<stop offset="1" stop-color="#2049F1"/>
</linearGradient>
</defs>
</svg>
