<svg width="474" height="474" viewBox="0 0 474 474" fill="none" xmlns="http://www.w3.org/2000/svg">
<circle cx="237" cy="237" r="237" fill="#1227C0"/>
<path fill-rule="evenodd" clip-rule="evenodd" d="M84.8478 182.095C84.9777 171.35 85.1266 159.036 93.5 149.499C97.4061 145.051 102.56 143.771 108.243 142.359C117.285 140.113 127.669 137.534 136.506 121.333C145.506 104.833 144.5 74.2299 113 70.4998C80.6956 66.6745 69.7088 96.2035 58.9728 125.058C56.2491 132.378 53.5416 139.655 50.5062 146.333C27.7871 196.316 40.5063 210.354 72.0061 206.334C84.5741 204.73 84.6984 194.449 84.8478 182.095ZM92.0062 118.334C85.7907 110.556 96.5062 99.8337 109.006 99.3337C121.506 98.8337 119.707 106.24 114.529 113.835C107.029 124.835 97.6054 125.341 92.0062 118.334Z" fill="#F5F5F5"/>
<path d="M93.5 149.499L94.6272 150.489L93.5 149.499ZM84.8478 182.095L86.3477 182.113L84.8478 182.095ZM108.243 142.359L108.605 143.815L108.243 142.359ZM136.506 121.333L137.823 122.052L136.506 121.333ZM113 70.4998L113.176 69.0102L113 70.4998ZM58.9728 125.058L57.567 124.535L58.9728 125.058ZM50.5062 146.333L51.8717 146.954L50.5062 146.333ZM72.0061 206.334L71.8162 204.846L72.0061 206.334ZM109.006 99.3337L109.066 100.833L109.006 99.3337ZM92.0062 118.334L90.8343 119.27L92.0062 118.334ZM114.529 113.835L115.768 114.68L114.529 113.835ZM92.3728 148.51C83.578 158.526 83.4767 171.426 83.3479 182.077L86.3477 182.113C86.4788 171.273 86.6752 159.545 94.6272 150.489L92.3728 148.51ZM107.882 140.903C102.268 142.298 96.6352 143.655 92.3728 148.51L94.6272 150.489C98.177 146.446 102.851 145.244 108.605 143.815L107.882 140.903ZM135.189 120.615C130.881 128.514 126.249 133.002 121.67 135.799C117.061 138.614 112.417 139.777 107.882 140.903L108.605 143.815C113.111 142.696 118.181 141.445 123.234 138.359C128.316 135.255 133.295 130.354 137.823 122.052L135.189 120.615ZM112.824 71.9894C120.456 72.8932 126.14 75.41 130.267 78.8484C134.396 82.2877 137.045 86.7139 138.504 91.5602C141.437 101.305 139.524 112.668 135.189 120.615L137.823 122.052C142.488 113.499 144.572 101.31 141.377 90.6955C139.772 85.3622 136.826 80.4069 132.188 76.5434C127.548 72.6789 121.294 69.9715 113.176 69.0102L112.824 71.9894ZM60.3787 125.581C65.7698 111.092 71.126 96.7353 79.0849 86.4415C83.0426 81.3228 87.6032 77.2675 93.0744 74.7121C98.5349 72.1617 104.994 71.0622 112.824 71.9894L113.176 69.0102C104.854 68.0248 97.8254 69.1819 91.8048 71.994C85.7949 74.8011 80.8807 79.2143 76.7116 84.6065C68.417 95.3345 62.9118 110.17 57.567 124.535L60.3787 125.581ZM51.8717 146.954C54.9329 140.219 57.6589 132.891 60.3787 125.581L57.567 124.535C54.8394 131.866 52.1502 139.092 49.1406 145.713L51.8717 146.954ZM71.8162 204.846C64.0346 205.839 57.5668 205.693 52.5817 204.243C47.6515 202.81 44.21 200.119 42.2857 195.955C40.3293 191.722 39.8443 185.76 41.3269 177.629C42.8066 169.515 46.2189 159.39 51.8717 146.954L49.1406 145.713C43.4339 158.268 39.9164 168.641 38.3756 177.091C36.8377 185.524 37.2414 192.192 39.5624 197.214C41.9155 202.305 46.1401 205.494 51.744 207.124C57.2932 208.738 64.2277 208.839 72.196 207.822L71.8162 204.846ZM83.3479 182.077C83.2721 188.346 83.1878 193.703 81.6797 197.718C80.9455 199.673 79.8925 201.244 78.3741 202.422C76.8511 203.604 74.7576 204.471 71.8162 204.846L72.196 207.822C75.5387 207.395 78.1737 206.375 80.2134 204.792C82.2578 203.206 83.6017 201.133 84.4882 198.773C86.2216 194.158 86.2741 188.198 86.3477 182.113L83.3479 182.077ZM108.946 97.8349C102.319 98.1 96.1365 101.065 92.3908 105.081C90.5133 107.095 89.1837 109.444 88.8001 111.925C88.4099 114.448 89.0193 116.999 90.8343 119.27L93.178 117.397C91.8853 115.78 91.5034 114.074 91.7648 112.383C92.0329 110.65 92.998 108.829 94.5849 107.127C97.7681 103.714 103.193 101.067 109.066 100.833L108.946 97.8349ZM115.768 114.68C117.097 112.73 118.244 110.743 119.001 108.851C119.748 106.983 120.175 105.058 119.876 103.297C119.558 101.43 118.452 99.9196 116.533 98.9748C114.702 98.0729 112.181 97.7056 108.946 97.8349L109.066 100.833C112.082 100.712 114.023 101.083 115.208 101.666C116.306 102.207 116.77 102.928 116.918 103.8C117.084 104.777 116.872 106.096 116.215 107.737C115.569 109.354 114.549 111.142 113.289 112.99L115.768 114.68ZM90.8343 119.27C93.9193 123.131 98.1858 125.04 102.787 124.319C107.325 123.608 111.875 120.389 115.768 114.68L113.289 112.99C109.682 118.281 105.77 120.815 102.322 121.355C98.937 121.885 95.6922 120.544 93.178 117.397L90.8343 119.27Z" fill="#F5F5F5"/>
<path fill-rule="evenodd" clip-rule="evenodd" d="M115.446 151.085C155.006 139.334 160.374 104.059 145.505 76.3287C127.004 41.8284 178.975 25.8285 205.504 80.8285C226.731 124.834 229.946 174.585 229.946 211.085C229.946 240.084 198.446 247.084 181.446 217.095C174.481 204.808 178.06 186.712 181.047 171.61C184.102 156.158 186.538 143.843 176.423 144.095C156.423 144.595 151.923 148.095 151.423 156.595C151.287 158.905 153.182 164.203 155.481 170.636C161.646 187.878 170.723 213.269 151.423 211.085C137.727 209.534 132.416 212.436 128.498 214.577C124.835 216.579 122.389 217.915 115.446 214.329C92.1154 202.275 85.5062 159.978 115.446 151.085ZM161.946 74.5839C166.446 63.0838 173.446 64.0843 180.446 78.584C185.114 88.2518 183.446 101.083 171.946 97.5835C162.364 94.6677 158.931 80.5876 161.946 74.5839Z" fill="#F5F5F5"/>
<path d="M145.505 76.3287L146.827 75.6199L145.505 76.3287ZM115.446 151.085L115.873 152.523L115.446 151.085ZM205.504 80.8285L204.153 81.4802L205.504 80.8285ZM181.446 217.095L180.141 217.835L181.446 217.095ZM181.047 171.61L179.575 171.319L181.047 171.61ZM176.423 144.095L176.461 145.595L176.423 144.095ZM151.423 156.595L149.926 156.507L151.423 156.595ZM155.481 170.636L156.894 170.131L155.481 170.636ZM151.423 211.085L151.255 212.575L151.423 211.085ZM128.498 214.577L127.779 213.261L128.498 214.577ZM115.446 214.329L116.135 212.996L115.446 214.329ZM180.446 78.584L181.797 77.9319V77.9319L180.446 78.584ZM161.946 74.5839L163.287 75.257L163.318 75.1951L163.343 75.1305L161.946 74.5839ZM171.946 97.5835L172.383 96.1484L171.946 97.5835ZM144.183 77.0376C151.468 90.6242 153.737 105.952 149.459 119.239C145.201 132.464 134.387 143.894 115.019 149.647L115.873 152.523C136.066 146.525 147.716 134.442 152.314 120.159C156.893 105.938 154.411 89.7636 146.827 75.6199L144.183 77.0376ZM206.855 80.1768C193.419 52.3211 173.297 42.0006 158.465 43.5238C151.055 44.2849 144.951 48.04 141.997 54.0838C139.041 60.1288 139.401 68.1197 144.183 77.0376L146.827 75.6199C142.359 67.2876 142.277 60.3408 144.692 55.4014C147.107 50.4608 152.185 47.1846 158.772 46.5081C171.933 45.1564 191.06 54.3359 204.153 81.4802L206.855 80.1768ZM231.446 211.085C231.446 174.53 228.234 124.498 206.855 80.1768L204.153 81.4802C225.227 125.17 228.446 174.639 228.446 211.085H231.446ZM180.141 217.835C188.85 233.197 201.512 239.447 212.312 237.691C223.184 235.923 231.446 226.161 231.446 211.085H228.446C228.446 225.007 220.959 233.245 211.83 234.73C202.631 236.226 191.043 230.983 182.751 216.356L180.141 217.835ZM179.575 171.319C178.086 178.849 176.42 187.257 176.016 195.333C175.613 203.399 176.454 211.331 180.141 217.835L182.751 216.356C179.473 210.573 178.621 203.312 179.013 195.483C179.404 187.663 181.021 179.472 182.518 171.901L179.575 171.319ZM176.461 145.595C178.669 145.54 179.92 146.161 180.695 147.081C181.533 148.076 182.047 149.685 182.176 152.046C182.437 156.791 181.119 163.51 179.575 171.319L182.518 171.901C184.03 164.258 185.458 157.094 185.172 151.881C185.028 149.263 184.444 146.875 182.99 145.148C181.473 143.348 179.235 142.525 176.386 142.596L176.461 145.595ZM152.921 156.683C153.039 154.671 153.388 153.094 154.056 151.824C154.708 150.583 155.715 149.538 157.326 148.664C160.664 146.854 166.454 145.845 176.461 145.595L176.386 142.596C166.393 142.846 159.933 143.837 155.896 146.027C153.819 147.153 152.357 148.607 151.4 150.429C150.458 152.221 150.058 154.27 149.926 156.507L152.921 156.683ZM156.894 170.131C155.74 166.904 154.705 164.006 153.973 161.628C153.607 160.44 153.326 159.409 153.144 158.549C152.959 157.669 152.899 157.06 152.921 156.683L149.926 156.507C149.88 157.285 150.006 158.205 150.209 159.168C150.417 160.153 150.727 161.281 151.105 162.511C151.861 164.967 152.923 167.935 154.069 171.141L156.894 170.131ZM151.255 212.575C156.385 213.156 160.063 211.932 162.264 209.014C164.369 206.223 164.819 202.249 164.497 198.031C163.851 189.556 159.952 178.684 156.894 170.131L154.069 171.141C157.175 179.829 160.897 190.275 161.506 198.259C161.812 202.272 161.297 205.314 159.869 207.208C158.536 208.975 156.111 210.106 151.592 209.594L151.255 212.575ZM129.217 215.893C131.156 214.834 133.31 213.66 136.625 212.909C139.954 212.156 144.531 211.814 151.255 212.575L151.592 209.594C144.619 208.805 139.693 209.139 135.963 209.983C132.219 210.831 129.759 212.179 127.779 213.261L129.217 215.893ZM114.758 215.661C118.339 217.511 120.976 218.209 123.307 218.045C125.622 217.882 127.43 216.87 129.217 215.893L127.779 213.261C125.903 214.286 124.656 214.943 123.097 215.052C121.554 215.161 119.496 214.733 116.135 212.996L114.758 215.661ZM115.019 149.647C99.2118 154.342 93.1147 167.916 93.9726 181.615C94.8252 195.23 102.538 209.348 114.758 215.661L116.135 212.996C105.024 207.256 97.7665 194.198 96.9668 181.428C96.1723 168.742 101.741 156.72 115.873 152.523L115.019 149.647ZM181.797 77.9319C180.013 74.2374 178.195 71.3268 176.364 69.2363C174.548 67.1641 172.604 65.7653 170.547 65.362C168.396 64.9402 166.411 65.6608 164.731 67.2184C163.098 68.7326 161.714 71.0611 160.549 74.0373L163.343 75.1305C164.428 72.3566 165.607 70.4976 166.771 69.4181C167.888 68.382 168.934 68.1028 169.97 68.306C171.101 68.5278 172.5 69.3791 174.107 71.2131C175.698 73.0289 177.379 75.6808 179.095 79.2362L181.797 77.9319ZM171.51 99.0185C174.631 99.9683 177.314 99.8763 179.46 98.7886C181.61 97.6991 182.965 95.7401 183.688 93.4779C185.11 89.0251 184.241 82.9939 181.797 77.9319L179.095 79.2362C181.319 83.842 181.95 89.0602 180.83 92.565C180.282 94.2816 179.356 95.4785 178.104 96.1127C176.849 96.7487 175.012 96.9484 172.383 96.1484L171.51 99.0185ZM160.606 73.9107C158.842 77.4226 159.058 82.91 160.812 87.7526C162.582 92.6392 166.101 97.3728 171.51 99.0185L172.383 96.1484C168.209 94.8784 165.221 91.1141 163.633 86.7307C162.029 82.3034 162.035 77.7488 163.287 75.257L160.606 73.9107Z" fill="#F5F5F5"/>
<path fill-rule="evenodd" clip-rule="evenodd" d="M212.173 65.8417C205.419 54.0578 201.306 46.8813 207.504 35.83C219.004 15.326 281.946 16.8007 281.946 35.8313C281.946 44.9759 277.524 47.9363 272.464 51.3231C270.33 52.7519 268.082 54.2567 266.005 56.3338C251.231 71.1071 268.667 94.334 289.006 94.334C323.008 94.334 332.506 116.834 334.006 144.334C334.866 160.102 330.64 170.168 327.326 178.061C323.921 186.171 321.479 191.986 326.506 199.334C336.427 213.834 294.006 233.834 296.946 208.584C299.887 183.334 307.134 116.001 276.424 125.084C266 128.167 270.352 140.474 276.08 156.669C282.428 174.618 290.465 197.345 281.946 217.584C275.926 231.887 248.848 242.168 245.424 217.584C244.428 210.435 243.515 201.97 242.497 192.542C240.015 169.547 236.914 140.823 230.5 111.5C225.659 89.3712 217.95 75.921 212.173 65.8417ZM224.446 60.584C229.803 71.2288 237.946 69.0837 245.946 60.584C255 50.9648 256.248 46.6335 251.446 41.5837C242.562 32.2401 218.651 49.0668 224.446 60.584Z" fill="#F5F5F5"/>
<path d="M207.504 35.83L206.196 35.0962H206.196L207.504 35.83ZM212.173 65.8417L210.872 66.5876L212.173 65.8417ZM272.464 51.3231L271.63 50.0765V50.0766L272.464 51.3231ZM266.005 56.3338L267.065 57.3944V57.3944L266.005 56.3338ZM334.006 144.334L332.509 144.416L334.006 144.334ZM327.326 178.061L325.943 177.481L327.326 178.061ZM326.506 199.334L325.268 200.181L326.506 199.334ZM276.424 125.084L275.999 123.645L276.424 125.084ZM276.08 156.669L274.666 157.169L276.08 156.669ZM281.946 217.584L283.329 218.166L281.946 217.584ZM245.424 217.584L246.91 217.377L245.424 217.584ZM242.497 192.542L241.006 192.703L242.497 192.542ZM230.5 111.5L229.035 111.821L230.5 111.5ZM245.946 60.584L244.854 59.5559L245.946 60.584ZM224.446 60.584L225.786 59.9097L224.446 60.584ZM251.446 41.5837L252.533 40.5501L251.446 41.5837ZM206.196 35.0962C202.931 40.9174 202.33 45.857 203.522 50.9059C204.681 55.8118 207.531 60.7583 210.872 66.5876L213.475 65.0958C210.062 59.1413 207.479 54.6075 206.442 50.2164C205.438 45.9682 205.879 41.7939 208.813 36.5638L206.196 35.0962ZM283.446 35.8313C283.446 30.1046 278.712 26.079 272.501 23.5314C266.188 20.9419 257.757 19.5988 249.054 19.5052C240.339 19.4116 231.226 20.5696 223.523 23.0776C215.872 25.5686 209.346 29.4809 206.196 35.0962L208.813 36.5638C211.413 31.9271 217.067 28.3348 224.452 25.9302C231.785 23.5426 240.564 22.4142 249.022 22.5051C257.492 22.5961 265.515 23.9083 271.363 26.307C277.313 28.7474 280.446 32.0427 280.446 35.8313H283.446ZM273.299 52.5696C275.789 50.9026 278.384 49.1827 280.301 46.6391C282.267 44.0296 283.446 40.6713 283.446 35.8313H280.446C280.446 40.1359 279.415 42.8301 277.905 44.8336C276.345 46.9031 274.199 48.3568 271.63 50.0765L273.299 52.5696ZM267.065 57.3944C269.024 55.436 271.152 54.0063 273.299 52.5696L271.63 50.0766C269.507 51.4976 267.14 53.0774 264.944 55.2731L267.065 57.3944ZM289.006 92.834C279.386 92.834 270.393 87.32 265.59 80.0472C263.198 76.4256 261.891 72.4364 262.005 68.5479C262.119 64.6868 263.634 60.8255 267.065 57.3944L264.944 55.2731C260.988 59.2287 259.143 63.8108 259.007 68.4597C258.871 73.0813 260.424 77.6688 263.086 81.7005C268.393 89.7346 278.287 95.834 289.006 95.834V92.834ZM335.504 144.252C334.749 130.402 331.974 117.54 324.893 108.12C317.742 98.606 306.377 92.834 289.006 92.834V95.834C305.638 95.834 316.023 101.312 322.495 109.923C329.039 118.628 331.764 130.766 332.509 144.416L335.504 144.252ZM328.709 178.642C332.044 170.699 336.383 160.372 335.504 144.252L332.509 144.416C333.349 159.832 329.236 169.638 325.943 177.481L328.709 178.642ZM327.744 198.487C325.431 195.106 324.88 192.179 325.243 189.162C325.62 186.027 326.983 182.753 328.709 178.642L325.943 177.481C324.264 181.479 322.702 185.168 322.264 188.804C321.812 192.56 322.554 196.214 325.268 200.181L327.744 198.487ZM295.456 208.41C295.068 211.749 295.409 214.498 296.42 216.665C297.445 218.861 299.109 220.35 301.133 221.21C305.08 222.889 310.258 222.145 314.909 220.255C319.605 218.346 324.14 215.123 326.877 211.324C329.636 207.495 330.705 202.814 327.744 198.487L325.268 200.181C327.268 203.104 326.755 206.361 324.443 209.57C322.108 212.811 318.081 215.728 313.78 217.476C309.433 219.242 305.177 219.67 302.307 218.45C300.923 217.861 299.832 216.883 299.139 215.396C298.431 213.881 298.09 211.731 298.436 208.757L295.456 208.41ZM276.849 126.522C280.45 125.457 283.353 125.55 285.719 126.434C288.088 127.318 290.082 129.056 291.749 131.576C295.126 136.679 296.985 144.715 297.81 154.091C299.454 172.769 296.929 195.766 295.456 208.41L298.436 208.757C299.904 196.152 302.473 172.858 300.798 153.828C299.964 144.349 298.06 135.677 294.251 129.92C292.325 127.01 289.87 124.781 286.768 123.623C283.664 122.464 280.076 122.44 275.999 123.645L276.849 126.522ZM277.494 156.169C274.603 147.995 272.169 141.078 271.689 135.823C271.451 133.219 271.717 131.218 272.495 129.741C273.241 128.322 274.557 127.2 276.849 126.522L275.999 123.645C273.078 124.509 271.03 126.082 269.84 128.344C268.68 130.547 268.438 133.213 268.701 136.096C269.223 141.814 271.829 149.147 274.666 157.169L277.494 156.169ZM283.329 218.166C287.736 207.695 287.833 196.642 286.068 186.022C284.305 175.416 280.661 165.124 277.494 156.169L274.666 157.169C277.847 166.163 281.396 176.209 283.109 186.514C284.819 196.804 284.676 207.233 280.564 217.002L283.329 218.166ZM243.938 217.791C244.833 224.217 247.314 228.605 250.845 231.179C254.365 233.745 258.695 234.335 262.951 233.647C271.364 232.287 280.1 225.836 283.329 218.166L280.564 217.002C277.772 223.634 269.959 229.475 262.472 230.686C258.778 231.283 255.319 230.728 252.612 228.754C249.914 226.788 247.726 223.243 246.91 217.377L243.938 217.791ZM241.006 192.703C242.023 202.124 242.939 210.615 243.938 217.791L246.91 217.377C245.918 210.256 245.007 201.817 243.988 192.381L241.006 192.703ZM229.035 111.821C235.429 141.054 238.523 169.701 241.006 192.703L243.988 192.381C241.507 169.393 238.4 140.593 231.965 111.179L229.035 111.821ZM210.872 66.5876C216.628 76.6294 224.244 89.9197 229.035 111.821L231.965 111.179C227.075 88.8226 219.273 75.2126 213.475 65.0958L210.872 66.5876ZM244.854 59.5559C240.921 63.7352 237.22 66.0411 234.097 66.2671C231.218 66.4755 228.308 64.9217 225.786 59.9097L223.106 61.2583C225.941 66.891 229.782 69.5872 234.313 69.2593C238.601 68.949 242.972 65.9325 247.039 61.6121L244.854 59.5559ZM250.359 42.6174C251.472 43.7876 252.138 44.8181 252.461 45.7991C252.774 46.7497 252.798 47.7547 252.451 48.9536C251.72 51.4819 249.393 54.733 244.854 59.5559L247.039 61.6121C251.553 56.8158 254.377 53.0917 255.333 49.7871C255.83 48.0695 255.831 46.4436 255.311 44.8613C254.8 43.3094 253.821 41.9048 252.533 40.5501L250.359 42.6174ZM225.786 59.9097C224.619 57.5912 224.88 54.9045 226.305 52.1272C227.735 49.3411 230.271 46.6226 233.305 44.4877C236.338 42.3529 239.753 40.8834 242.858 40.4785C245.954 40.0748 248.571 40.7364 250.359 42.6174L252.533 40.5501C249.88 37.7593 246.176 37.0204 242.47 37.5037C238.775 37.9857 234.908 39.6908 231.578 42.0343C228.248 44.3779 225.338 47.4415 223.636 50.7577C221.93 54.0826 221.375 57.8182 223.106 61.2583L225.786 59.9097Z" fill="#F5F5F5"/>
<path d="M399.425 98.5887C414.925 86.5887 372.699 64.545 347.948 58.0876C321.194 51.1078 265 55.0044 275 74.4998C282.987 90.0707 304.508 79.5839 323.006 89.3339C342.106 99.4007 355 144.999 343.5 170.5C337.745 183.261 325.56 211.257 361.446 198.585C368.447 196.113 390.088 186.439 378.946 158.585C369.946 136.085 346.448 96.0876 354.948 85.5876C363.448 75.0876 383.925 110.589 399.425 98.5887Z" fill="#F5F5F5" stroke="#F5F5F5" stroke-width="3"/>
<path d="M374 110C354.5 115.5 402 142 390.5 180C384.064 201.269 437.942 196 426.5 179C409 153 400 138.5 430.5 138.5C439.36 138.5 426 115 417.5 111.5C403 105.529 411 133.5 400 133.5C382 133.5 401 102.385 374 110Z" fill="#F5F5F5" stroke="#F5F5F5" stroke-width="3"/>
<path d="M72.9464 218.085C58.3927 214.835 42.9625 218.085 36.4464 229.584C19.4462 259.584 71.2495 286.084 63.9239 338.584C59.4589 370.584 72.9464 388.584 87.4464 393.584C101.946 398.584 101.924 380.584 118.424 383.084C134.924 385.584 105 424 126.5 424C155 424 149.148 401.667 152 390C157.5 367.5 167.123 363.425 182.005 347.084C207.505 319.084 175.576 222.167 147 220.5C86.5134 216.973 164.924 330.084 147.924 335.084C130.924 340.084 137.924 311.084 124.924 311.084C111.924 311.084 123.924 331.084 110.424 330.084C96.9239 329.084 101.946 274.085 101.946 255.585C101.946 237.085 87.5 221.334 72.9464 218.085Z" fill="#F5F5F5" stroke="#F5F5F5" stroke-width="3"/>
<path fill-rule="evenodd" clip-rule="evenodd" d="M169.446 429.581C157.446 410.081 161.024 384.493 185.5 362C209.976 339.507 206.774 305.202 197.424 274.582C184.421 232 274.505 231.584 271.446 302.583C270.626 321.632 279.833 331.701 290.074 342.901C295.142 348.443 300.462 354.261 304.946 361.581C305.417 362.35 305.891 363.121 306.366 363.894C319.491 385.26 333.694 408.382 318.424 429.581C304.726 448.598 283.485 451.712 260.446 445.083C243.246 440.133 244.99 418.899 246.549 399.907C247.951 382.839 249.204 367.581 236.424 367.581C223.626 367.581 225.857 384.079 228.348 402.508C231.113 422.959 234.199 445.787 217.424 451.081C196.859 457.572 180.748 447.947 169.446 429.581ZM223.946 323.083C215.229 311.947 222.5 301.5 233 299C248.859 295.224 255.995 305.246 245.946 318.083C237.641 328.692 232.251 333.692 223.946 323.083Z" fill="#F5F5F5"/>
<path d="M185.5 362L186.515 363.105L185.5 362ZM169.446 429.581L168.169 430.367L169.446 429.581ZM197.424 274.582L195.989 275.02L197.424 274.582ZM271.446 302.583L272.945 302.648L271.446 302.583ZM290.074 342.901L288.967 343.913L290.074 342.901ZM304.946 361.581L303.667 362.365V362.365L304.946 361.581ZM306.366 363.894L307.644 363.109V363.109L306.366 363.894ZM318.424 429.581L319.641 430.458L318.424 429.581ZM260.446 445.083L260.861 443.641L260.446 445.083ZM246.549 399.907L248.044 400.03L246.549 399.907ZM228.348 402.508L229.835 402.307L228.348 402.508ZM217.424 451.081L217.875 452.512L217.424 451.081ZM233 299L232.653 297.541L233 299ZM223.946 323.083L222.765 324.007L223.946 323.083ZM245.946 318.083L244.765 317.158V317.158L245.946 318.083ZM184.485 360.896C159.619 383.747 155.702 410.108 168.169 430.367L170.724 428.795C159.191 410.054 162.43 385.239 186.515 363.105L184.485 360.896ZM195.989 275.02C205.325 305.591 208.252 339.054 184.485 360.896L186.515 363.105C211.7 339.96 208.224 304.813 198.858 274.144L195.989 275.02ZM272.945 302.648C273.724 284.563 268.568 270.898 260.489 261.301C252.426 251.723 241.527 246.287 230.954 244.51C220.416 242.739 210.02 244.579 203.035 249.808C199.525 252.436 196.879 255.923 195.563 260.207C194.247 264.488 194.292 269.462 195.989 275.02L198.858 274.144C197.305 269.057 197.32 264.703 198.43 261.088C199.54 257.476 201.774 254.499 204.833 252.209C210.986 247.603 220.482 245.792 230.457 247.469C240.397 249.14 250.633 254.251 258.194 263.233C265.74 272.196 270.698 285.104 269.948 302.519L272.945 302.648ZM291.181 341.889C280.939 330.687 272.153 321.027 272.945 302.648L269.948 302.519C269.098 322.236 278.728 332.715 288.967 343.913L291.181 341.889ZM306.225 360.798C301.656 353.338 296.24 347.42 291.181 341.889L288.967 343.913C294.044 349.465 299.269 355.184 303.667 362.365L306.225 360.798ZM307.644 363.109C307.169 362.336 306.696 361.565 306.225 360.798L303.667 362.365C304.139 363.134 304.613 363.906 305.088 364.68L307.644 363.109ZM319.641 430.458C327.618 419.384 327.857 407.791 324.482 396.375C321.132 385.047 314.18 373.749 307.644 363.109L305.088 364.68C311.677 375.405 318.389 386.352 321.605 397.226C324.794 408.012 324.5 418.579 317.207 428.705L319.641 430.458ZM260.031 446.524C271.716 449.887 283.057 450.812 293.281 448.41C303.538 445.999 312.582 440.258 319.641 430.458L317.207 428.705C310.568 437.921 302.142 443.246 292.595 445.489C283.014 447.741 272.215 446.908 260.861 443.641L260.031 446.524ZM245.054 399.784C244.279 409.223 243.425 419.495 244.987 428.031C245.773 432.323 247.184 436.277 249.598 439.505C252.03 442.758 255.426 445.199 260.031 446.524L260.861 443.641C256.866 442.492 254.03 440.422 252 437.708C249.952 434.97 248.672 431.5 247.938 427.491C246.462 419.425 247.26 409.584 248.044 400.03L245.054 399.784ZM236.424 369.081C239.295 369.081 241.198 369.925 242.521 371.28C243.888 372.679 244.803 374.791 245.33 377.618C246.394 383.323 245.761 391.171 245.054 399.784L248.044 400.03C248.738 391.575 249.433 383.26 248.279 377.069C247.697 373.948 246.616 371.179 244.668 369.184C242.676 367.145 239.942 366.081 236.424 366.081V369.081ZM229.835 402.307C228.579 393.017 227.438 384.503 228.143 378.303C228.494 375.217 229.283 372.923 230.558 371.416C231.775 369.977 233.582 369.081 236.424 369.081V366.081C232.867 366.081 230.154 367.248 228.267 369.478C226.439 371.64 225.542 374.622 225.162 377.964C224.406 384.621 225.626 393.57 226.862 402.709L229.835 402.307ZM217.875 452.512C222.41 451.081 225.65 448.437 227.865 444.936C230.057 441.47 231.201 437.234 231.705 432.642C232.709 423.496 231.21 412.477 229.835 402.307L226.862 402.709C228.252 412.989 229.678 423.61 228.723 432.315C228.247 436.648 227.19 440.39 225.329 443.332C223.49 446.24 220.826 448.435 216.972 449.651L217.875 452.512ZM168.169 430.367C173.917 439.709 180.962 446.949 189.306 451.002C197.687 455.072 207.254 455.864 217.875 452.512L216.972 449.651C207.029 452.789 198.258 452.014 190.617 448.303C182.939 444.574 176.277 437.819 170.724 428.795L168.169 430.367ZM232.653 297.541C227.053 298.874 222.184 302.354 219.911 307.162C217.594 312.063 218.109 318.059 222.765 324.007L225.127 322.158C221.067 316.971 220.859 312.176 222.623 308.444C224.431 304.62 228.447 301.626 233.348 300.459L232.653 297.541ZM247.127 319.007C252.299 312.4 253.498 305.916 250.423 301.46C247.38 297.05 240.799 295.601 232.653 297.541L233.348 300.459C241.06 298.623 245.976 300.297 247.954 303.164C249.899 305.983 249.642 310.928 244.765 317.158L247.127 319.007ZM222.765 324.007C224.907 326.744 226.973 328.624 229.075 329.624C231.247 330.656 233.376 330.71 235.461 329.948C237.473 329.214 239.368 327.749 241.231 325.895C243.105 324.03 245.047 321.665 247.127 319.007L244.765 317.158C242.693 319.805 240.847 322.044 239.115 323.768C237.372 325.504 235.844 326.615 234.432 327.13C233.093 327.619 231.799 327.597 230.364 326.914C228.861 326.2 227.138 324.726 225.127 322.158L222.765 324.007Z" fill="#F5F5F5"/>
<path d="M316.446 279.084C316.446 227.084 244.5 225.5 274.5 263C294.016 287.395 274.62 308.642 294.5 329.5C346.446 384 330.054 407 356 407C382.5 407 407.04 370.984 395.505 342.584C388.505 325.584 348.946 293.584 358.946 269.084C368.946 244.584 369.946 215.084 348.946 215.084C324 215.084 314.924 230.084 322.924 262.084C330.924 294.084 371.924 339.084 345.424 342.584C318.924 346.084 316.446 299.215 316.446 279.084Z" fill="#F5F5F5" stroke="#F5F5F5" stroke-width="3"/>
<path d="M436.447 222.587C435.361 205 403.446 203.086 384.446 203.086C350.97 203.087 388.734 215 378 243.5C360.024 291.23 396.5 317 409.5 342C415.847 354.205 444.5 328.5 439.947 301.09C436.997 283.334 404.446 284.59 403.446 266.09C402.446 247.59 439.947 286.09 439.947 257.59C439.947 229.09 408.592 268.959 395.947 242.088C383.947 216.588 438.947 263.085 436.447 222.587Z" fill="#F5F5F5" stroke="#F5F5F5" stroke-width="3"/>
</svg>
