<svg width="148" height="137" viewBox="0 0 148 137" fill="none" xmlns="http://www.w3.org/2000/svg" preserveAspectRatio="xMidYMid meet">
<path d="M98.4698 136.923H78.1189C76.1449 136.923 74.198 136.463 72.4324 135.58L72.2778 135.503C70.3999 134.564 68.7995 133.151 67.6349 131.404C66.3137 129.422 65.6087 127.094 65.6087 124.712V122.66V113.15C65.6087 110.628 65.2571 108.117 64.5641 105.692C63.9946 103.698 63.1987 101.777 62.192 99.9648L58.9528 94.1342L55.4271 87.083C54.6091 85.4469 53.9082 83.7548 53.3297 82.0194L53.1581 81.5044C51.9578 77.9037 51.3459 74.1258 51.3459 70.3304C51.3459 67.2006 51.7716 64.0479 52.5951 61.0284C53.6489 57.1644 55.3728 53.4718 57.6696 50.1907C59.7795 47.1765 62.3541 44.5161 65.2975 42.3085L68.6564 39.7893C71.0463 37.9969 73.7095 36.6016 76.5435 35.6569L76.9135 35.5336C79.5024 34.6706 82.2136 34.2306 84.9426 34.2306C88.4952 34.2306 92.0083 34.9761 95.2547 36.419L98.8885 38.034L106.495 41.8374L111.632 44.4059C113.256 45.218 115.048 45.6408 116.864 45.6408C119.966 45.6408 122.941 44.4084 125.135 42.2146L125.512 41.8374L125.559 41.7791C128.044 38.673 129.96 35.1517 131.217 31.3781L134.608 31.9432C136.134 32.1974 137.588 32.7725 138.875 33.6302L138.927 33.6653C139.491 34.0412 140.017 34.472 140.496 34.9513C141.278 35.7335 141.929 36.6368 142.424 37.6262L143.539 39.8566C144.198 41.1747 144.742 42.5471 145.166 43.9586L145.586 45.3584C146.777 49.3288 147.382 53.4519 147.382 57.5971V67.4558C147.382 73.1885 146.933 78.9124 146.039 84.5749L144.529 94.1342L143.976 101.322C143.712 104.758 143.028 108.148 141.938 111.417L141.314 113.288C140.295 116.346 138.776 119.238 136.842 121.817C135.013 124.255 132.808 126.414 130.327 128.186C128.392 129.568 126.298 130.713 124.09 131.596L117.906 134.07C111.6 135.962 105.053 136.923 98.4698 136.923Z" fill="white"/>
<path d="M126.463 41.8375L127.068 41.0817C129.189 38.4305 130.907 35.4813 132.168 32.329C130.903 29.1663 129.346 26.1285 127.517 23.2548L125.2 19.6126C124.142 17.9507 122.948 16.3794 121.63 14.9152L121.542 14.8166C117.295 10.0986 111.849 6.62097 105.782 4.75429C104.364 4.12415 102.858 3.71623 101.316 3.54489L86.5274 1.90173H77.4442C72.7335 1.90173 68.0329 2.3386 63.4029 3.20673L61.1088 3.63688C57.1478 4.37957 53.2804 5.55525 49.5762 7.14275C44.4468 9.34105 39.6818 12.307 35.4447 15.9388L35.1814 16.1645L42.7882 19.0171L51.3459 20.9188L57.3692 21.4663C60.3167 21.7343 63.2232 22.3423 66.0309 23.2782L66.8633 23.5556C69.1882 24.3306 71.4129 25.3784 73.4911 26.6773L76.6186 28.632C77.5129 29.1909 78.3062 29.8971 78.965 30.7205C80.7399 32.9391 83.4271 34.2307 86.2683 34.2307H88.3692C90.2894 34.2307 92.1883 34.6336 93.943 35.4135L99.8393 38.0341L107.446 41.8375L112.583 44.4059C114.207 45.2181 115.998 45.6409 117.814 45.6409C120.917 45.6409 123.892 44.4085 126.086 42.2147L126.463 41.8375Z" fill="white"/>
<path d="M132.168 32.3289L135.528 33.2888C137.712 33.9129 139.787 34.8721 141.677 36.1323C141.048 32.9888 139.855 29.9851 138.156 27.2666L137.358 25.9893C136.435 24.5127 135.403 23.1074 134.27 21.7853L131.875 18.992C130.804 17.7427 129.639 16.5775 128.39 15.5066C125.234 12.8014 121.583 10.7342 117.639 9.41965L115.053 8.55762L115.491 8.92233C118.984 11.8335 122.039 15.2334 124.561 19.017L129.603 26.9396C130.675 28.6244 131.537 30.4343 132.168 32.3289Z" fill="white"/>
<path d="M116.004 8.55766L120.758 10.4594C126.405 13.5965 131.36 17.842 135.326 22.9411L135.972 23.7713L137.636 11.4102L137.847 5.50092C137.864 5.0056 137.812 4.51026 137.692 4.02942C137.218 2.1345 135.739 0.654939 133.844 0.181209L133.767 0.161878C133.337 0.0543653 132.895 0 132.452 0H126.611C121.937 0 117.284 0.619731 112.774 1.84296L108.298 3.05657C106.471 3.55212 104.585 3.8034 102.692 3.8034L108.397 5.70511L113.151 7.60681L116.004 8.55766Z" fill="white"/>
<path d="M80.0368 34.8094L81.7732 34.2306L81.2691 33.6005C79.0853 30.8707 76.4556 28.53 73.4912 26.6772C71.4131 25.3784 69.1883 24.3305 66.8634 23.5556L66.031 23.2781C63.2233 22.3422 60.3168 21.7342 57.3694 21.4663L51.346 20.9187L42.7883 19.9678L35.1815 16.1644L33.4886 17.8574C27.6618 23.6842 22.4902 30.1311 18.0662 37.0832C16.1729 40.8697 14.793 44.8917 13.9627 49.0429L13.3119 52.2968C12.68 57.9844 12.68 63.7245 13.3119 69.4121L15.2136 79.8715L18.0662 89.38L21.8696 98.8885L25.8459 106.178C26.9965 108.288 28.316 110.301 29.7913 112.198C32.7316 115.978 36.2622 119.26 40.2472 121.917L42.7883 123.611L43.1006 123.809C49.8399 128.098 57.0797 131.544 64.6579 134.07L76.0681 136.923L73.2286 135.503C71.3508 134.564 69.7504 133.151 68.5858 131.404C67.2646 129.422 66.5596 127.094 66.5596 124.712V122.66V113.15C66.5596 110.628 66.208 108.117 65.5149 105.692C64.9455 103.698 64.1496 101.777 63.1429 99.9648L59.9036 94.1342L56.378 87.083C55.56 85.4469 54.8591 83.7548 54.2806 82.0194L54.1089 81.5044C52.9087 77.9037 52.2968 74.1258 52.2968 70.3304C52.2968 67.2006 52.7225 64.0479 53.546 61.0284C54.5998 57.1644 56.3237 53.4718 58.6204 50.1907C60.7304 47.1765 63.305 44.5161 66.2484 42.3085L67.4633 41.3973C71.2732 38.5399 75.5189 36.3154 80.0368 34.8094Z" fill="white"/>
<path d="M44.69 29.4763L51.346 20.9187L47.7869 20.1278C44.4599 19.3885 41.1984 18.381 38.034 17.1153C36.1608 16.4909 34.1633 16.3341 32.2156 16.6588L29.4764 17.1153L18.0662 18.0661L13.8408 18.7704C12.8558 18.9345 11.8852 19.1756 10.9379 19.4914L9.84521 19.8556C7.74787 20.5547 5.8421 21.7325 4.27883 23.2958C2.71556 24.8591 1.53773 26.7648 0.83862 28.8622L0.774714 29.0539C0.261594 30.5933 0 32.2053 0 33.8279V35.8716C0 38.5666 0.393418 41.2471 1.16781 43.8284L1.36031 44.4701C2.34877 47.765 3.85795 50.8805 5.83064 53.6986L7.67452 56.3327C8.89323 58.0738 10.306 59.6705 11.8856 61.0921L14.2628 63.2316C17.4215 66.0744 20.9015 68.5383 24.6322 70.5732L29.4764 73.2155C30.1084 65.6308 31.5562 58.1363 33.7944 50.8618L34.2306 49.4442L38.9849 38.9849L40.6964 36.1323L44.69 29.4763Z" fill="white"/>
<path d="M38.3704 40.1115L38.9849 38.9849L40.6964 36.1324L33.2798 34.2307L31.326 33.6724C28.2628 32.7973 25.0067 32.868 21.9845 33.8754L21.6277 33.9944C21.1556 34.1517 20.6954 34.3424 20.2503 34.5649L19.3419 35.0191C17.8966 35.7417 16.7247 36.9137 16.002 38.3589C15.4836 39.3959 15.2136 40.5394 15.2136 41.6988V42.7883C15.2136 44.6643 15.6504 46.5144 16.4893 48.1923L18.3315 51.8767C18.7847 52.783 19.4 53.5988 20.147 54.2835L27.5373 61.0579C28.8412 62.2532 30.9491 61.6198 31.3781 59.9037C32.6378 52.9754 34.9984 46.2935 38.3704 40.1115Z" fill="white"/>
<ellipse cx="103.643" cy="84.6257" rx="6.65596" ry="10.4594" fill="white"/>
<ellipse cx="105.861" cy="87.4783" rx="1.4791" ry="3.80341" fill="white"/>
<ellipse cx="138.911" cy="81.3657" rx="5.79155" ry="9.101" fill="white"/>
<ellipse cx="140.841" cy="83.8477" rx="1.28701" ry="3.30946" fill="white"/>
<path d="M114.102 116.004L114.288 116.084C116.354 116.978 118.53 117.59 120.758 117.906H122.013C122.443 117.906 122.871 117.853 123.287 117.749C124.124 117.54 124.999 117.54 125.836 117.749L126.463 117.906L125.654 120.332C125.56 120.616 125.445 120.892 125.312 121.16L125.278 121.227C124.809 122.166 124.102 122.966 123.229 123.548C122.238 124.209 121.074 124.562 119.883 124.562H118.856H118.524C116.867 124.562 115.232 124.176 113.75 123.435L112.878 122.998C112.429 122.774 112.02 122.479 111.665 122.125L111.644 122.103C110.783 121.242 110.299 120.074 110.299 118.856V117.41C110.299 117.11 110.368 116.815 110.502 116.548C110.931 115.69 111.925 115.278 112.835 115.582L114.102 116.004Z" fill="white"/>
<path d="M97.4914 134H78.1694C76.2952 134 74.4467 133.564 72.7704 132.725L72.6235 132.652C70.8406 131.761 69.3212 130.419 68.2154 128.761C66.961 126.879 66.2917 124.668 66.2917 122.407V120.458V111.43C66.2917 109.035 65.9578 106.651 65.2998 104.348C64.7591 102.456 64.0035 100.631 63.0477 98.9108L59.9722 93.375L56.6248 86.6802C55.8482 85.1268 55.1827 83.5203 54.6335 81.8726L54.4705 81.3837C53.331 77.965 52.75 74.3781 52.75 70.7746C52.75 67.803 53.1541 64.8098 53.936 61.9429C54.9366 58.2742 56.5732 54.7684 58.7539 51.6531C60.7571 48.7914 63.2016 46.2654 65.9962 44.1695L69.1853 41.7776C71.4543 40.0759 73.9829 38.751 76.6736 37.8541L77.0249 37.737C79.483 36.9177 82.0571 36.5 84.6481 36.5C88.0211 36.5 91.3565 37.2078 94.4388 38.5777L97.8889 40.1111L105.111 43.7222L109.988 46.1608C111.53 46.9319 113.231 47.3333 114.955 47.3333C117.901 47.3333 120.726 46.1632 122.809 44.0803L123.167 43.7222L123.211 43.6668C125.57 40.7177 127.389 37.3745 128.583 33.7916L131.803 34.3282C133.251 34.5696 134.632 35.1155 135.853 35.93L135.903 35.9632C136.439 36.3202 136.938 36.7291 137.393 37.1842C138.135 37.9269 138.753 38.7845 139.223 39.7239L140.282 41.8415C140.908 43.093 141.424 44.396 141.826 45.7361L142.225 47.0652C143.356 50.8348 143.931 54.7494 143.931 58.685V68.0454C143.931 73.4882 143.504 78.9227 142.655 84.2989L141.222 93.375L140.697 100.2C140.446 103.462 139.796 106.681 138.762 109.784L138.17 111.56C137.202 114.464 135.76 117.209 133.923 119.658C132.187 121.973 130.093 124.023 127.738 125.705C125.901 127.017 123.913 128.104 121.816 128.943L115.944 131.292C109.958 133.088 103.741 134 97.4914 134Z" fill="url(#paint0_linear_11_1350)" stroke="black" stroke-width="0.5"/>
<path d="M124.07 43.7222L124.644 43.0046C126.657 40.4875 128.289 37.6873 129.486 34.6944C128.285 31.6917 126.807 28.8074 125.071 26.079L122.87 22.621C121.866 21.0431 120.732 19.5513 119.481 18.161L119.397 18.0675C115.365 13.588 110.194 10.2862 104.434 8.51388C103.088 7.9156 101.658 7.5283 100.194 7.36563L86.1528 5.80554H77.5289C73.0563 5.80554 68.5934 6.22032 64.1975 7.04456L62.0193 7.45297C58.2586 8.1581 54.5867 9.27434 51.0699 10.7816C46.1998 12.8687 41.6757 15.6847 37.6528 19.1329L37.4028 19.3472L44.6251 22.0555L52.7501 23.8611L58.4689 24.381C61.2673 24.6354 64.0269 25.2126 66.6927 26.1012L67.483 26.3647C69.6903 27.1004 71.8026 28.0953 73.7756 29.3285L76.7451 31.1844C77.5941 31.715 78.3473 32.3855 78.9728 33.1673C80.658 35.2738 83.2093 36.5 85.9069 36.5H87.9015C89.7247 36.5 91.5276 36.8826 93.1936 37.623L98.7917 40.1111L106.014 43.7222L110.891 46.1608C112.433 46.9319 114.134 47.3333 115.858 47.3333C118.804 47.3333 121.629 46.1632 123.711 44.0804L124.07 43.7222Z" fill="url(#paint1_linear_11_1350)" stroke="black" stroke-width="0.5"/>
<path d="M129.486 34.6944L132.676 35.6058C134.75 36.1983 136.719 37.1091 138.514 38.3056C137.917 35.321 136.785 32.4691 135.171 29.8881L134.413 28.6753C133.537 27.2734 132.557 25.9392 131.481 24.6839L129.208 22.0319C128.191 20.8457 127.085 19.7394 125.899 18.7227C122.902 16.1542 119.436 14.1915 115.691 12.9434L113.236 12.125L113.652 12.4713C116.968 15.2352 119.869 18.4632 122.264 22.0556L127.051 29.5776C128.069 31.1772 128.886 32.8957 129.486 34.6944Z" fill="url(#paint2_linear_11_1350)" stroke="black" stroke-width="0.5"/>
<path d="M114.139 12.125L118.653 13.9306C124.014 16.9091 128.719 20.9399 132.484 25.7812L133.097 26.5694L134.677 14.8333L134.877 9.22281C134.894 8.75253 134.845 8.28223 134.731 7.8257C134.281 6.02658 132.876 4.62183 131.077 4.17205L131.004 4.15369C130.595 4.05162 130.176 4 129.755 4H124.21C119.772 4 115.355 4.5884 111.072 5.74979L106.823 6.90204C105.088 7.37253 103.298 7.61111 101.5 7.61111L106.917 9.41667L111.431 11.2222L114.139 12.125Z" fill="url(#paint3_linear_11_1350)" stroke="black" stroke-width="0.5"/>
<path d="M79.9903 37.0495L81.6389 36.4999L81.1602 35.9017C79.0868 33.3099 76.5901 31.0875 73.7755 29.3284C71.8025 28.0953 69.6902 27.1004 67.4829 26.3646L66.6926 26.1012C64.0268 25.2126 61.2672 24.6354 58.4688 24.381L52.75 23.8611L44.625 22.9583L37.4028 19.3472L35.7954 20.9545C30.2632 26.4867 25.3531 32.6077 21.1528 39.2083C19.3552 42.8033 18.045 46.622 17.2567 50.5634L16.6389 53.6527C16.0389 59.0528 16.0389 64.5027 16.6389 69.9027L18.4444 79.8333L21.1528 88.8611L24.7639 97.8888L28.5391 104.81C29.6316 106.813 30.8843 108.724 32.285 110.525C35.0767 114.115 38.4288 117.23 42.2123 119.753L44.625 121.361L44.9215 121.55C51.32 125.622 58.1938 128.893 65.3889 131.292L76.2222 134L73.5263 132.652C71.7433 131.761 70.2239 130.419 69.1182 128.761C67.8638 126.879 67.1944 124.668 67.1944 122.407V120.458V111.43C67.1944 109.035 66.8606 106.651 66.2026 104.348C65.6619 102.455 64.9062 100.631 63.9504 98.9107L60.875 93.3749L57.5276 86.6802C56.7509 85.1268 56.0854 83.5202 55.5362 81.8726L55.3732 81.3837C54.2337 77.965 53.6528 74.3781 53.6528 70.7746C53.6528 67.803 54.0569 64.8097 54.8388 61.9429C55.8393 58.2742 57.476 54.7683 59.6566 51.6531C61.6599 48.7913 64.1044 46.2654 66.899 44.1695L68.0525 43.3043C71.6697 40.5914 75.7007 38.4793 79.9903 37.0495Z" fill="url(#paint4_linear_11_1350)" stroke="black" stroke-width="0.5"/>
<path d="M46.4306 31.9861L52.75 23.8611L49.3708 23.1101C46.2121 22.4082 43.1154 21.4517 40.1111 20.2499C38.3326 19.6571 36.436 19.5083 34.5868 19.8165L31.9861 20.2499L21.1528 21.1527L17.141 21.8213C16.2059 21.9772 15.2843 22.2061 14.3849 22.5059L13.3475 22.8517C11.3561 23.5155 9.54673 24.6338 8.0625 26.118C6.57827 27.6022 5.45999 29.4116 4.79622 31.403L4.73555 31.585C4.24837 33.0465 4 34.577 4 36.1176V38.058C4 40.6167 4.37353 43.1617 5.10877 45.6125L5.29153 46.2217C6.23002 49.35 7.6629 52.3081 9.53586 54.9837L11.2865 57.4846C12.4436 59.1376 13.785 60.6536 15.2847 62.0034L17.5417 64.0347C20.5407 66.7338 23.8448 69.0731 27.3869 71.0051L31.9861 73.5138C32.5862 66.3126 33.9607 59.197 36.0859 52.2903L36.5 50.9444L41.0139 41.0138L42.6389 38.3055L46.4306 31.9861Z" fill="url(#paint5_linear_11_1350)" stroke="black" stroke-width="0.5"/>
<path d="M40.4303 42.0835L41.0138 41.0139L42.6388 38.3056L35.5971 36.5L33.7421 35.97C30.8338 35.1391 27.7423 35.2062 24.8729 36.1627L24.5341 36.2756C24.0859 36.425 23.6489 36.606 23.2264 36.8173L22.3639 37.2486C20.9917 37.9347 19.879 39.0473 19.1929 40.4195C18.7006 41.4041 18.4443 42.4898 18.4443 43.5905V44.625C18.4443 46.4061 18.859 48.1627 19.6555 49.7558L21.4046 53.2538C21.8349 54.1144 22.4191 54.8889 23.1283 55.539L30.1449 61.9709C31.3829 63.1058 33.3842 62.5043 33.7916 60.875C34.9876 54.2971 37.2288 47.953 40.4303 42.0835Z" fill="url(#paint6_linear_11_1350)" stroke="black" stroke-width="0.5"/>
<ellipse cx="102.403" cy="84.3472" rx="6.31944" ry="9.93056" fill="#131313"/>
<ellipse cx="104.509" cy="87.0556" rx="1.40432" ry="3.61111" fill="white"/>
<ellipse cx="135.888" cy="81.252" rx="5.49874" ry="8.64087" fill="#131313"/>
<ellipse cx="137.72" cy="83.6086" rx="1.22194" ry="3.14214" fill="white"/>
<path d="M112.333 114.139L112.51 114.215C114.471 115.063 116.537 115.645 118.653 115.944H119.844C120.252 115.944 120.658 115.894 121.054 115.796C121.848 115.597 122.679 115.597 123.474 115.796L124.069 115.944L123.301 118.249C123.212 118.518 123.103 118.78 122.976 119.034L122.944 119.098C122.498 119.989 121.828 120.749 120.998 121.302C120.058 121.929 118.952 122.264 117.821 122.264H116.847H116.531C114.958 122.264 113.406 121.898 111.999 121.194L111.171 120.78C110.745 120.567 110.356 120.287 110.019 119.95L109.999 119.93C109.181 119.112 108.722 118.003 108.722 116.847V115.474C108.722 115.19 108.788 114.909 108.915 114.655C109.323 113.841 110.267 113.45 111.13 113.738L112.333 114.139Z" fill="url(#paint7_linear_11_1350)"/>
<path d="M124.069 115.944L123.474 115.796C122.679 115.597 121.848 115.597 121.054 115.796V115.796C120.658 115.894 120.252 115.944 119.844 115.944H118.653V115.944C116.537 115.645 114.471 115.063 112.51 114.215L112.333 114.139L111.13 113.738C110.267 113.45 109.323 113.841 108.915 114.655V114.655C108.788 114.909 108.722 115.19 108.722 115.474V116.847V116.847C108.722 118.003 109.181 119.112 109.999 119.93L110.019 119.95C110.356 120.287 110.745 120.567 111.171 120.78L111.999 121.194C113.406 121.898 114.958 122.264 116.531 122.264H116.847H117.821C118.952 122.264 120.058 121.929 120.998 121.302V121.302C121.828 120.749 122.498 119.989 122.944 119.098L122.976 119.034C123.103 118.78 123.212 118.518 123.301 118.249L124.069 115.944ZM124.069 115.944L124.448 115.566C125.393 114.621 126.18 113.529 126.778 112.333V112.333" stroke="black" stroke-width="0.5" stroke-linecap="round" stroke-linejoin="round"/>
<defs>
<linearGradient id="paint0_linear_11_1350" x1="98.3403" y1="34.6944" x2="98.3403" y2="134" gradientUnits="userSpaceOnUse">
<stop stop-color="white"/>
<stop offset="1" stop-color="#D4E7EE"/>
</linearGradient>
<linearGradient id="paint1_linear_11_1350" x1="82.0903" y1="5.80554" x2="82.0903" y2="47.3333" gradientUnits="userSpaceOnUse">
<stop stop-color="#4DCED1"/>
<stop offset="1" stop-color="#062F3C"/>
</linearGradient>
<linearGradient id="paint2_linear_11_1350" x1="126.326" y1="13.0278" x2="126.326" y2="38.3056" gradientUnits="userSpaceOnUse">
<stop stop-color="#49C5C8"/>
<stop offset="1" stop-color="#1F696D"/>
</linearGradient>
<linearGradient id="paint3_linear_11_1350" x1="118.201" y1="4" x2="118.201" y2="24.7639" gradientUnits="userSpaceOnUse">
<stop stop-color="#4BC8CB"/>
<stop offset="1" stop-color="#124954"/>
</linearGradient>
<linearGradient id="paint4_linear_11_1350" x1="53.6527" y1="46.4305" x2="33.7916" y2="84.3472" gradientUnits="userSpaceOnUse">
<stop stop-color="#099193"/>
<stop offset="1" stop-color="#114752"/>
</linearGradient>
<linearGradient id="paint5_linear_11_1350" x1="28.375" y1="19.3472" x2="28.375" y2="73.5138" gradientUnits="userSpaceOnUse">
<stop stop-color="#4AC6C9"/>
<stop offset="1" stop-color="#0E414D"/>
</linearGradient>
<linearGradient id="paint6_linear_11_1350" x1="30.5416" y1="34.6945" x2="30.5416" y2="64.4861" gradientUnits="userSpaceOnUse">
<stop stop-color="#0E0234"/>
<stop offset="1" stop-color="#1D0F42"/>
</linearGradient>
<linearGradient id="paint7_linear_11_1350" x1="117.75" y1="110.528" x2="117.75" y2="122.264" gradientUnits="userSpaceOnUse">
<stop stop-color="#871908"/>
<stop offset="0.5" stop-color="#481E14"/>
<stop offset="1" stop-color="#AB5B44"/>
</linearGradient>
</defs>
</svg>
