<svg width="44" height="44" viewBox="0 0 44 44" fill="none" xmlns="http://www.w3.org/2000/svg">
<path d="M21.6315 15.0444L21.6316 15M21.6316 28.2632V28.2447M15.0444 21.6316L15 21.6316M28.2632 21.6316H28.2447M16.9737 26.2894L16.9423 26.3208M26.3208 16.9424L26.3077 16.9555M26.2894 26.2894L26.3208 26.3208M16.9423 16.9423L16.9554 16.9554M25.421 21.6316C25.421 23.7244 23.7244 25.4211 21.6316 25.4211C19.5387 25.4211 17.8421 23.7244 17.8421 21.6316C17.8421 19.5387 19.5387 17.8421 21.6316 17.8421C23.7244 17.8421 25.421 19.5387 25.421 21.6316Z" stroke="#E4E5E1" stroke-width="1.5" stroke-linecap="round"/>
<rect x="0.75" y="0.75" width="41.7632" height="41.7632" rx="20.8816" stroke="#E4E5E1" stroke-width="1.5"/>
</svg>
